<mxfile host="app.diagrams.net" modified="2022-07-21T21:55:14.890Z" agent="5.0 (Macintosh; Intel Mac OS X 10_15_7) AppleWebKit/537.36 (KHTML, like Gecko) Chrome/103.0.0.0 Safari/537.36" etag="6oM4OrmCc0cX2Mza2uM2" version="20.1.4" type="github">
  <diagram id="7hqPSPKScotGYTefbX5v" name="Page-1">
    <mxGraphModel dx="815" dy="550" grid="1" gridSize="10" guides="1" tooltips="1" connect="1" arrows="1" fold="1" page="1" pageScale="1" pageWidth="1169" pageHeight="827" math="0" shadow="0">
      <root>
        <mxCell id="0" />
        <mxCell id="1" parent="0" />
        <mxCell id="LuacaKuUAbjQaWSRHdwC-1" value="Amazon Route 53" style="sketch=0;outlineConnect=0;fontColor=#232F3E;gradientColor=none;strokeColor=#ffffff;fillColor=#232F3E;dashed=0;verticalLabelPosition=middle;verticalAlign=bottom;align=center;html=1;whiteSpace=wrap;fontSize=10;fontStyle=1;spacing=3;shape=mxgraph.aws4.productIcon;prIcon=mxgraph.aws4.route_53;" parent="1" vertex="1">
          <mxGeometry x="489" y="31" width="40" height="70" as="geometry" />
        </mxCell>
        <mxCell id="LuacaKuUAbjQaWSRHdwC-3" value="DNS registration" style="text;html=1;align=center;verticalAlign=middle;resizable=0;points=[];autosize=1;strokeColor=default;fillColor=none;" parent="1" vertex="1">
          <mxGeometry x="40" y="130" width="100" height="20" as="geometry" />
        </mxCell>
        <mxCell id="LuacaKuUAbjQaWSRHdwC-5" value="Health Checking" style="text;html=1;align=center;verticalAlign=middle;resizable=0;points=[];autosize=1;strokeColor=default;fillColor=none;" parent="1" vertex="1">
          <mxGeometry x="993" y="129.5" width="100" height="20" as="geometry" />
        </mxCell>
        <mxCell id="LuacaKuUAbjQaWSRHdwC-6" value="&lt;b&gt;resource recordsets&lt;/b&gt;" style="text;html=1;align=center;verticalAlign=middle;resizable=0;points=[];autosize=1;strokeColor=none;fillColor=none;" parent="1" vertex="1">
          <mxGeometry x="394" y="221" width="130" height="20" as="geometry" />
        </mxCell>
        <mxCell id="LuacaKuUAbjQaWSRHdwC-10" value="" style="strokeWidth=1;html=1;shape=mxgraph.flowchart.annotation_1;align=left;pointerEvents=1;fontColor=#000033;fillColor=none;strokeColor=#3399FF;" parent="1" vertex="1">
          <mxGeometry x="527" y="135" width="12" height="50" as="geometry" />
        </mxCell>
        <mxCell id="LuacaKuUAbjQaWSRHdwC-11" value="" style="strokeWidth=1;html=1;shape=mxgraph.flowchart.annotation_1;align=left;pointerEvents=1;fontColor=#000033;fillColor=none;direction=west;strokeColor=#3399FF;" parent="1" vertex="1">
          <mxGeometry x="646" y="135" width="12" height="50" as="geometry" />
        </mxCell>
        <mxCell id="LuacaKuUAbjQaWSRHdwC-12" value="how route trafic to &lt;br&gt;our domains&lt;br&gt;(manage traffic globally)" style="text;html=1;align=left;verticalAlign=middle;resizable=0;points=[];autosize=1;strokeColor=none;fillColor=none;fontSize=12;" parent="1" vertex="1">
          <mxGeometry x="527" y="133.5" width="140" height="50" as="geometry" />
        </mxCell>
        <mxCell id="LuacaKuUAbjQaWSRHdwC-22" value="&lt;font color=&quot;#00994d&quot;&gt;public hosted zones&lt;/font&gt;&lt;br&gt;----------------------------&lt;br&gt;&lt;font color=&quot;#ff3333&quot;&gt;private hosted zones&lt;/font&gt;&amp;nbsp;" style="rounded=0;whiteSpace=wrap;html=1;" parent="1" vertex="1">
          <mxGeometry x="401" y="159" width="120" height="60" as="geometry" />
        </mxCell>
        <mxCell id="LuacaKuUAbjQaWSRHdwC-23" value="register domain name" style="text;html=1;align=left;verticalAlign=middle;resizable=0;points=[];autosize=1;strokeColor=none;fillColor=none;fontSize=12;fontColor=#000033;" parent="1" vertex="1">
          <mxGeometry x="31" y="160" width="130" height="20" as="geometry" />
        </mxCell>
        <mxCell id="LuacaKuUAbjQaWSRHdwC-24" value="" style="strokeWidth=1;html=1;shape=mxgraph.flowchart.annotation_1;align=left;pointerEvents=1;fontColor=#000033;fillColor=none;strokeColor=#3399FF;" parent="1" vertex="1">
          <mxGeometry x="29" y="160" width="12" height="19" as="geometry" />
        </mxCell>
        <mxCell id="LuacaKuUAbjQaWSRHdwC-25" value="" style="strokeWidth=1;html=1;shape=mxgraph.flowchart.annotation_1;align=left;pointerEvents=1;fontColor=#000033;fillColor=none;direction=west;strokeColor=#3399FF;" parent="1" vertex="1">
          <mxGeometry x="138" y="161" width="12" height="19" as="geometry" />
        </mxCell>
        <mxCell id="LuacaKuUAbjQaWSRHdwC-26" value="&lt;span style=&quot;color: rgb(0, 0, 0);&quot;&gt;DNS Routing&lt;/span&gt;" style="rounded=0;whiteSpace=wrap;html=1;fontColor=#00994D;" parent="1" vertex="1">
          <mxGeometry x="402" y="130" width="120" height="25" as="geometry" />
        </mxCell>
        <mxCell id="LuacaKuUAbjQaWSRHdwC-32" value="Routing&amp;nbsp; Policies" style="text;html=1;align=center;verticalAlign=middle;resizable=0;points=[];autosize=1;strokeColor=none;fillColor=none;fontColor=#000033;" parent="1" vertex="1">
          <mxGeometry x="405" y="270" width="100" height="20" as="geometry" />
        </mxCell>
        <mxCell id="LuacaKuUAbjQaWSRHdwC-33" value="" style="endArrow=none;html=1;rounded=0;fontColor=#000033;" parent="1" edge="1">
          <mxGeometry width="50" height="50" relative="1" as="geometry">
            <mxPoint x="451" y="265" as="sourcePoint" />
            <mxPoint x="451" y="245" as="targetPoint" />
          </mxGeometry>
        </mxCell>
        <mxCell id="LuacaKuUAbjQaWSRHdwC-36" value="latency based &lt;br&gt;routing" style="text;html=1;align=left;verticalAlign=middle;resizable=0;points=[];autosize=1;strokeColor=none;fillColor=none;fontColor=#000033;" parent="1" vertex="1">
          <mxGeometry x="484" y="486" width="90" height="30" as="geometry" />
        </mxCell>
        <mxCell id="LuacaKuUAbjQaWSRHdwC-40" value="" style="endArrow=none;html=1;rounded=0;fontColor=#000033;entryX=0.282;entryY=1.214;entryDx=0;entryDy=0;entryPerimeter=0;" parent="1" edge="1">
          <mxGeometry width="50" height="50" relative="1" as="geometry">
            <mxPoint x="373" y="340" as="sourcePoint" />
            <mxPoint x="420.20000000000005" y="294.28" as="targetPoint" />
          </mxGeometry>
        </mxCell>
        <mxCell id="LuacaKuUAbjQaWSRHdwC-42" value="geolocation&lt;br&gt;routing" style="text;html=1;align=center;verticalAlign=middle;resizable=0;points=[];autosize=1;strokeColor=none;fillColor=none;fontColor=#000033;" parent="1" vertex="1">
          <mxGeometry x="397" y="367" width="80" height="30" as="geometry" />
        </mxCell>
        <mxCell id="LuacaKuUAbjQaWSRHdwC-43" value="geoproximity&lt;br&gt;routing" style="text;html=1;align=center;verticalAlign=middle;resizable=0;points=[];autosize=1;strokeColor=none;fillColor=none;fontColor=#000033;" parent="1" vertex="1">
          <mxGeometry x="478" y="345" width="80" height="30" as="geometry" />
        </mxCell>
        <mxCell id="LuacaKuUAbjQaWSRHdwC-44" value="" style="endArrow=none;html=1;rounded=0;fontColor=#000033;" parent="1" edge="1">
          <mxGeometry width="50" height="50" relative="1" as="geometry">
            <mxPoint x="435" y="357" as="sourcePoint" />
            <mxPoint x="435" y="293" as="targetPoint" />
          </mxGeometry>
        </mxCell>
        <mxCell id="LuacaKuUAbjQaWSRHdwC-45" value="" style="endArrow=none;html=1;rounded=0;fontColor=#000033;exitX=0.34;exitY=-0.091;exitDx=0;exitDy=0;exitPerimeter=0;" parent="1" source="LuacaKuUAbjQaWSRHdwC-43" edge="1">
          <mxGeometry width="50" height="50" relative="1" as="geometry">
            <mxPoint x="458.5" y="343" as="sourcePoint" />
            <mxPoint x="458.5" y="290" as="targetPoint" />
          </mxGeometry>
        </mxCell>
        <mxCell id="LuacaKuUAbjQaWSRHdwC-46" value="" style="endArrow=none;html=1;rounded=0;fontColor=#000033;exitX=0.336;exitY=0.018;exitDx=0;exitDy=0;exitPerimeter=0;" parent="1" source="LuacaKuUAbjQaWSRHdwC-49" edge="1">
          <mxGeometry width="50" height="50" relative="1" as="geometry">
            <mxPoint x="686" y="390" as="sourcePoint" />
            <mxPoint x="506" y="288" as="targetPoint" />
          </mxGeometry>
        </mxCell>
        <mxCell id="LuacaKuUAbjQaWSRHdwC-47" value="failover &lt;br&gt;routing" style="text;html=1;align=center;verticalAlign=middle;resizable=0;points=[];autosize=1;strokeColor=none;fillColor=none;fontColor=#000033;" parent="1" vertex="1">
          <mxGeometry x="646" y="290" width="50" height="30" as="geometry" />
        </mxCell>
        <mxCell id="LuacaKuUAbjQaWSRHdwC-49" value="simple&lt;br&gt;routing" style="text;html=1;align=center;verticalAlign=middle;resizable=0;points=[];autosize=1;strokeColor=none;fillColor=none;fontColor=#000033;" parent="1" vertex="1">
          <mxGeometry x="667" y="397" width="50" height="30" as="geometry" />
        </mxCell>
        <mxCell id="LuacaKuUAbjQaWSRHdwC-50" value="weighted&lt;br&gt;routing" style="text;html=1;align=center;verticalAlign=middle;resizable=0;points=[];autosize=1;strokeColor=none;fillColor=none;fontColor=#000033;" parent="1" vertex="1">
          <mxGeometry x="334" y="345" width="60" height="30" as="geometry" />
        </mxCell>
        <mxCell id="LuacaKuUAbjQaWSRHdwC-52" value="" style="endArrow=none;html=1;rounded=0;fontColor=#000033;entryX=1.049;entryY=0.7;entryDx=0;entryDy=0;entryPerimeter=0;" parent="1" target="LuacaKuUAbjQaWSRHdwC-32" edge="1">
          <mxGeometry width="50" height="50" relative="1" as="geometry">
            <mxPoint x="646" y="300" as="sourcePoint" />
            <mxPoint x="584.0999999999999" y="286.72" as="targetPoint" />
          </mxGeometry>
        </mxCell>
        <mxCell id="LuacaKuUAbjQaWSRHdwC-53" value="" style="endArrow=none;html=1;rounded=0;fontColor=#000033;exitX=0.258;exitY=-0.085;exitDx=0;exitDy=0;exitPerimeter=0;" parent="1" source="LuacaKuUAbjQaWSRHdwC-36" edge="1">
          <mxGeometry width="50" height="50" relative="1" as="geometry">
            <mxPoint x="516" y="440" as="sourcePoint" />
            <mxPoint x="448" y="293" as="targetPoint" />
          </mxGeometry>
        </mxCell>
        <mxCell id="LuacaKuUAbjQaWSRHdwC-54" value="" style="endArrow=none;html=1;rounded=0;fontColor=#000033;exitX=0.515;exitY=-0.112;exitDx=0;exitDy=0;exitPerimeter=0;" parent="1" source="LuacaKuUAbjQaWSRHdwC-55" edge="1">
          <mxGeometry width="50" height="50" relative="1" as="geometry">
            <mxPoint x="356" y="410" as="sourcePoint" />
            <mxPoint x="356" y="375" as="targetPoint" />
          </mxGeometry>
        </mxCell>
        <mxCell id="LuacaKuUAbjQaWSRHdwC-55" value="Single domain/&lt;br&gt;subdomain" style="text;html=1;align=left;verticalAlign=middle;resizable=0;points=[];autosize=1;strokeColor=default;fillColor=none;fontColor=#000033;" parent="1" vertex="1">
          <mxGeometry x="285" y="413" width="90" height="30" as="geometry" />
        </mxCell>
        <mxCell id="LuacaKuUAbjQaWSRHdwC-56" value="" style="endArrow=none;html=1;rounded=0;fontColor=#000033;" parent="1" edge="1">
          <mxGeometry width="50" height="50" relative="1" as="geometry">
            <mxPoint x="316" y="470" as="sourcePoint" />
            <mxPoint x="316" y="445" as="targetPoint" />
          </mxGeometry>
        </mxCell>
        <mxCell id="LuacaKuUAbjQaWSRHdwC-57" value="route traffic to &lt;br&gt;multiples resources" style="text;html=1;align=center;verticalAlign=middle;resizable=0;points=[];autosize=1;strokeColor=none;fillColor=none;fontColor=#000033;fontStyle=1" parent="1" vertex="1">
          <mxGeometry x="258" y="469" width="130" height="30" as="geometry" />
        </mxCell>
        <mxCell id="LuacaKuUAbjQaWSRHdwC-58" value="" style="rounded=1;whiteSpace=wrap;html=1;fontColor=#000033;strokeColor=default;" parent="1" vertex="1">
          <mxGeometry x="266" y="502" width="130" height="50" as="geometry" />
        </mxCell>
        <mxCell id="LuacaKuUAbjQaWSRHdwC-59" value="&lt;div style=&quot;text-align: left;&quot;&gt;&lt;ul&gt;&lt;li&gt;&lt;span style=&quot;background-color: initial;&quot;&gt;load balancing&lt;/span&gt;&lt;/li&gt;&lt;li&gt;&lt;span style=&quot;background-color: initial;&quot;&gt;testing new versions&lt;/span&gt;&lt;/li&gt;&lt;/ul&gt;&lt;/div&gt;" style="text;html=1;align=center;verticalAlign=middle;resizable=0;points=[];autosize=1;strokeColor=none;fillColor=none;fontColor=#000033;" parent="1" vertex="1">
          <mxGeometry x="240" y="505" width="160" height="60" as="geometry" />
        </mxCell>
        <mxCell id="LuacaKuUAbjQaWSRHdwC-60" value="use cases:" style="text;html=1;align=center;verticalAlign=middle;resizable=0;points=[];autosize=1;strokeColor=none;fillColor=none;fontColor=#000033;" parent="1" vertex="1">
          <mxGeometry x="267" y="504" width="70" height="20" as="geometry" />
        </mxCell>
        <mxCell id="LuacaKuUAbjQaWSRHdwC-62" value="Based on &lt;br&gt;geographic&amp;nbsp;&lt;br&gt;locations &lt;br&gt;of your users" style="text;html=1;align=left;verticalAlign=middle;resizable=0;points=[];autosize=1;strokeColor=default;fillColor=none;fontColor=#000033;" parent="1" vertex="1">
          <mxGeometry x="397" y="410" width="80" height="60" as="geometry" />
        </mxCell>
        <mxCell id="LuacaKuUAbjQaWSRHdwC-63" value="" style="endArrow=none;html=1;rounded=0;fontColor=#000033;" parent="1" edge="1">
          <mxGeometry width="50" height="50" relative="1" as="geometry">
            <mxPoint x="436" y="407" as="sourcePoint" />
            <mxPoint x="436" y="395" as="targetPoint" />
          </mxGeometry>
        </mxCell>
        <mxCell id="LuacaKuUAbjQaWSRHdwC-64" value="based on geografic &lt;br&gt;locations of users &lt;br&gt;and resources&amp;nbsp;" style="text;html=1;align=left;verticalAlign=middle;resizable=0;points=[];autosize=1;strokeColor=default;fillColor=none;fontColor=#000033;" parent="1" vertex="1">
          <mxGeometry x="510" y="403" width="120" height="50" as="geometry" />
        </mxCell>
        <mxCell id="LuacaKuUAbjQaWSRHdwC-65" value="" style="endArrow=none;html=1;rounded=0;fontColor=#000033;" parent="1" edge="1">
          <mxGeometry width="50" height="50" relative="1" as="geometry">
            <mxPoint x="531" y="399" as="sourcePoint" />
            <mxPoint x="531" y="379" as="targetPoint" />
          </mxGeometry>
        </mxCell>
        <mxCell id="LuacaKuUAbjQaWSRHdwC-66" value="trafic --&amp;gt; single resource" style="text;html=1;align=center;verticalAlign=middle;resizable=0;points=[];autosize=1;strokeColor=default;fillColor=none;fontColor=#000033;" parent="1" vertex="1">
          <mxGeometry x="651" y="450" width="140" height="20" as="geometry" />
        </mxCell>
        <mxCell id="LuacaKuUAbjQaWSRHdwC-68" value="" style="endArrow=none;html=1;rounded=0;fontColor=#000033;" parent="1" edge="1">
          <mxGeometry width="50" height="50" relative="1" as="geometry">
            <mxPoint x="693" y="450" as="sourcePoint" />
            <mxPoint x="693" y="430" as="targetPoint" />
          </mxGeometry>
        </mxCell>
        <mxCell id="LuacaKuUAbjQaWSRHdwC-69" value="trafic to health&lt;br&gt;resources" style="text;html=1;align=left;verticalAlign=middle;resizable=0;points=[];autosize=1;strokeColor=default;fillColor=none;fontColor=#000033;" parent="1" vertex="1">
          <mxGeometry x="701" y="345" width="90" height="30" as="geometry" />
        </mxCell>
        <mxCell id="LuacaKuUAbjQaWSRHdwC-70" value="traffic to differents &lt;br&gt;resources when &lt;br&gt;resource is unhealthy" style="text;html=1;align=left;verticalAlign=middle;resizable=0;points=[];autosize=1;strokeColor=default;fillColor=none;fontColor=#000033;" parent="1" vertex="1">
          <mxGeometry x="736" y="275" width="130" height="50" as="geometry" />
        </mxCell>
        <mxCell id="LuacaKuUAbjQaWSRHdwC-71" value="" style="endArrow=none;html=1;rounded=0;fontColor=#000033;exitX=0.003;exitY=0.535;exitDx=0;exitDy=0;exitPerimeter=0;" parent="1" source="LuacaKuUAbjQaWSRHdwC-70" edge="1">
          <mxGeometry width="50" height="50" relative="1" as="geometry">
            <mxPoint x="726" y="301" as="sourcePoint" />
            <mxPoint x="698" y="301" as="targetPoint" />
          </mxGeometry>
        </mxCell>
        <mxCell id="LuacaKuUAbjQaWSRHdwC-72" value="" style="endArrow=none;html=1;rounded=0;fontColor=#000033;exitX=-0.04;exitY=0.191;exitDx=0;exitDy=0;exitPerimeter=0;" parent="1" edge="1">
          <mxGeometry width="50" height="50" relative="1" as="geometry">
            <mxPoint x="701.4000000000001" y="343.73" as="sourcePoint" />
            <mxPoint x="691" y="320" as="targetPoint" />
          </mxGeometry>
        </mxCell>
        <mxCell id="LuacaKuUAbjQaWSRHdwC-74" value="" style="strokeWidth=1;html=1;shape=mxgraph.flowchart.annotation_1;align=left;pointerEvents=1;fontColor=#000033;fillColor=none;strokeColor=#3399FF;" parent="1" vertex="1">
          <mxGeometry x="903" y="130" width="12" height="39" as="geometry" />
        </mxCell>
        <mxCell id="LuacaKuUAbjQaWSRHdwC-75" value="" style="strokeWidth=1;html=1;shape=mxgraph.flowchart.annotation_1;align=left;pointerEvents=1;fontColor=#000033;fillColor=none;direction=west;strokeColor=#3399FF;" parent="1" vertex="1">
          <mxGeometry x="975" y="130" width="12" height="39" as="geometry" />
        </mxCell>
        <mxCell id="LuacaKuUAbjQaWSRHdwC-76" value="Configure DNS &lt;br&gt;health check" style="text;html=1;align=left;verticalAlign=middle;resizable=0;points=[];autosize=1;strokeColor=none;fillColor=none;fontSize=12;" parent="1" vertex="1">
          <mxGeometry x="903" y="134.5" width="100" height="30" as="geometry" />
        </mxCell>
        <mxCell id="LuacaKuUAbjQaWSRHdwC-77" value="" style="endArrow=none;html=1;rounded=0;fontColor=#000033;" parent="1" edge="1">
          <mxGeometry width="50" height="50" relative="1" as="geometry">
            <mxPoint x="976" y="226" as="sourcePoint" />
            <mxPoint x="1023" y="155" as="targetPoint" />
          </mxGeometry>
        </mxCell>
        <mxCell id="LuacaKuUAbjQaWSRHdwC-78" value="" style="endArrow=none;html=1;rounded=0;fontColor=#000033;" parent="1" edge="1">
          <mxGeometry width="50" height="50" relative="1" as="geometry">
            <mxPoint x="1106" y="226" as="sourcePoint" />
            <mxPoint x="1056" y="155" as="targetPoint" />
          </mxGeometry>
        </mxCell>
        <mxCell id="LuacaKuUAbjQaWSRHdwC-79" value="Monitor" style="text;html=1;align=center;verticalAlign=middle;resizable=0;points=[];autosize=1;strokeColor=none;fillColor=none;fontColor=#000033;" parent="1" vertex="1">
          <mxGeometry x="944" y="230" width="60" height="20" as="geometry" />
        </mxCell>
        <mxCell id="LuacaKuUAbjQaWSRHdwC-80" value="Control" style="text;html=1;align=center;verticalAlign=middle;resizable=0;points=[];autosize=1;strokeColor=none;fillColor=none;fontColor=#000033;" parent="1" vertex="1">
          <mxGeometry x="1083" y="231" width="50" height="20" as="geometry" />
        </mxCell>
        <mxCell id="LuacaKuUAbjQaWSRHdwC-81" value="Aplication&#39; ability&lt;br&gt;to recovery&lt;br&gt;from failures" style="text;html=1;align=center;verticalAlign=middle;resizable=0;points=[];autosize=1;strokeColor=#FF3333;fillColor=none;fontColor=#000033;" parent="1" vertex="1">
          <mxGeometry x="925" y="268" width="100" height="50" as="geometry" />
        </mxCell>
        <mxCell id="LuacaKuUAbjQaWSRHdwC-82" value="Application&lt;br&gt;recovery" style="text;html=1;align=center;verticalAlign=middle;resizable=0;points=[];autosize=1;strokeColor=#FF3333;fillColor=none;fontColor=#000033;" parent="1" vertex="1">
          <mxGeometry x="1075" y="269" width="70" height="30" as="geometry" />
        </mxCell>
        <mxCell id="LuacaKuUAbjQaWSRHdwC-83" value="" style="endArrow=none;html=1;rounded=0;fontColor=#000033;" parent="1" edge="1">
          <mxGeometry width="50" height="50" relative="1" as="geometry">
            <mxPoint x="975" y="267" as="sourcePoint" />
            <mxPoint x="975" y="247" as="targetPoint" />
          </mxGeometry>
        </mxCell>
        <mxCell id="LuacaKuUAbjQaWSRHdwC-84" value="" style="endArrow=none;html=1;rounded=0;fontColor=#000033;" parent="1" edge="1">
          <mxGeometry width="50" height="50" relative="1" as="geometry">
            <mxPoint x="1107" y="268" as="sourcePoint" />
            <mxPoint x="1107" y="248" as="targetPoint" />
          </mxGeometry>
        </mxCell>
        <mxCell id="LuacaKuUAbjQaWSRHdwC-85" value="" style="shape=partialRectangle;whiteSpace=wrap;html=1;bottom=1;right=1;left=1;top=0;fillColor=none;routingCenterX=-0.5;rotation=-180;direction=east;" parent="1" vertex="1">
          <mxGeometry x="75" y="114" width="960" height="15" as="geometry" />
        </mxCell>
        <mxCell id="LuacaKuUAbjQaWSRHdwC-86" value="" style="line;strokeWidth=2;direction=south;html=1;" parent="1" vertex="1">
          <mxGeometry x="509" y="101" width="1" height="11" as="geometry" />
        </mxCell>
        <mxCell id="LuacaKuUAbjQaWSRHdwC-87" value="Amazon Route 53" style="sketch=0;outlineConnect=0;fontColor=#232F3E;gradientColor=none;strokeColor=#ffffff;fillColor=#232F3E;dashed=0;verticalLabelPosition=middle;verticalAlign=bottom;align=center;html=1;whiteSpace=wrap;fontSize=10;fontStyle=1;spacing=3;shape=mxgraph.aws4.productIcon;prIcon=mxgraph.aws4.route_53;" parent="1" vertex="1">
          <mxGeometry x="60" y="640" width="40" height="70" as="geometry" />
        </mxCell>
        <mxCell id="LuacaKuUAbjQaWSRHdwC-88" value="route traffic to" style="text;html=1;align=center;verticalAlign=middle;resizable=0;points=[];autosize=1;strokeColor=none;fillColor=none;fontColor=#000033;" parent="1" vertex="1">
          <mxGeometry x="94" y="659" width="90" height="20" as="geometry" />
        </mxCell>
        <mxCell id="LuacaKuUAbjQaWSRHdwC-89" value="" style="rounded=0;whiteSpace=wrap;html=1;dashed=1;sketch=0;strokeColor=#FF9933;strokeWidth=1;fillColor=none;" parent="1" vertex="1">
          <mxGeometry x="187" y="579" width="333" height="181" as="geometry" />
        </mxCell>
        <mxCell id="LuacaKuUAbjQaWSRHdwC-90" value="" style="endArrow=classic;html=1;rounded=0;fontColor=#000033;" parent="1" edge="1">
          <mxGeometry width="50" height="50" relative="1" as="geometry">
            <mxPoint x="104" y="659" as="sourcePoint" />
            <mxPoint x="184" y="659" as="targetPoint" />
          </mxGeometry>
        </mxCell>
        <mxCell id="LuacaKuUAbjQaWSRHdwC-91" value="&lt;font style=&quot;font-size: 10px;&quot;&gt;&lt;b&gt;api gateway&lt;/b&gt;&lt;/font&gt;" style="sketch=0;points=[[0,0,0],[0.25,0,0],[0.5,0,0],[0.75,0,0],[1,0,0],[0,1,0],[0.25,1,0],[0.5,1,0],[0.75,1,0],[1,1,0],[0,0.25,0],[0,0.5,0],[0,0.75,0],[1,0.25,0],[1,0.5,0],[1,0.75,0]];outlineConnect=0;fontColor=#232F3E;gradientColor=#945DF2;gradientDirection=north;fillColor=#5A30B5;strokeColor=#ffffff;dashed=0;verticalLabelPosition=bottom;verticalAlign=top;align=center;html=1;fontSize=12;fontStyle=0;shape=mxgraph.aws4.resourceIcon;resIcon=mxgraph.aws4.api_gateway;aspect=fixed;" parent="1" vertex="1">
          <mxGeometry x="369" y="594" width="40" height="40" as="geometry" />
        </mxCell>
        <mxCell id="LuacaKuUAbjQaWSRHdwC-92" value="&lt;font style=&quot;font-size: 10px;&quot;&gt;&lt;b&gt;cloudfront&lt;/b&gt;&lt;/font&gt;" style="sketch=0;points=[[0,0,0],[0.25,0,0],[0.5,0,0],[0.75,0,0],[1,0,0],[0,1,0],[0.25,1,0],[0.5,1,0],[0.75,1,0],[1,1,0],[0,0.25,0],[0,0.5,0],[0,0.75,0],[1,0.25,0],[1,0.5,0],[1,0.75,0]];outlineConnect=0;fontColor=#232F3E;gradientColor=#945DF2;gradientDirection=north;fillColor=#5A30B5;strokeColor=#ffffff;dashed=0;verticalLabelPosition=bottom;verticalAlign=top;align=center;html=1;fontSize=12;fontStyle=0;aspect=fixed;shape=mxgraph.aws4.resourceIcon;resIcon=mxgraph.aws4.cloudfront;" parent="1" vertex="1">
          <mxGeometry x="292" y="594" width="40" height="40" as="geometry" />
        </mxCell>
        <mxCell id="LuacaKuUAbjQaWSRHdwC-99" value="&lt;b style=&quot;font-size: 10px;&quot;&gt;beanstalk &lt;br&gt;environment&lt;/b&gt;" style="sketch=0;points=[[0,0,0],[0.25,0,0],[0.5,0,0],[0.75,0,0],[1,0,0],[0,1,0],[0.25,1,0],[0.5,1,0],[0.75,1,0],[1,1,0],[0,0.25,0],[0,0.5,0],[0,0.75,0],[1,0.25,0],[1,0.5,0],[1,0.75,0]];outlineConnect=0;fontColor=#232F3E;gradientColor=#F78E04;gradientDirection=north;fillColor=#D05C17;strokeColor=#ffffff;dashed=0;verticalLabelPosition=bottom;verticalAlign=top;align=center;html=1;fontSize=12;fontStyle=0;aspect=fixed;shape=mxgraph.aws4.resourceIcon;resIcon=mxgraph.aws4.elastic_beanstalk;" parent="1" vertex="1">
          <mxGeometry x="205" y="590" width="40" height="40" as="geometry" />
        </mxCell>
        <mxCell id="LuacaKuUAbjQaWSRHdwC-100" value="ELB" style="verticalLabelPosition=bottom;html=1;verticalAlign=top;strokeWidth=1;align=center;outlineConnect=0;dashed=0;outlineConnect=0;shape=mxgraph.aws3d.elasticLoadBalancing;fillColor=#ECECEC;strokeColor=#5E5E5E;aspect=fixed;fontSize=10;fontColor=#000033;" parent="1" vertex="1">
          <mxGeometry x="203" y="679" width="40" height="40" as="geometry" />
        </mxCell>
        <mxCell id="LuacaKuUAbjQaWSRHdwC-102" value="&lt;b&gt;Website Hosted &lt;br&gt;on S3&lt;/b&gt;" style="sketch=0;pointerEvents=1;shadow=0;dashed=0;html=1;strokeColor=none;fillColor=#505050;labelPosition=center;verticalLabelPosition=bottom;verticalAlign=top;outlineConnect=0;align=center;shape=mxgraph.office.concepts.website;fontSize=10;fontColor=#000033;" parent="1" vertex="1">
          <mxGeometry x="290" y="679" width="40" height="40" as="geometry" />
        </mxCell>
        <mxCell id="LuacaKuUAbjQaWSRHdwC-104" value="&lt;b&gt;&lt;font style=&quot;font-size: 10px;&quot;&gt;VPC Endpoints&lt;/font&gt;&lt;/b&gt;" style="sketch=0;outlineConnect=0;fontColor=#232F3E;gradientColor=none;fillColor=#4D27AA;strokeColor=none;dashed=0;verticalLabelPosition=bottom;verticalAlign=top;align=center;html=1;fontSize=12;fontStyle=0;aspect=fixed;pointerEvents=1;shape=mxgraph.aws4.endpoints;" parent="1" vertex="1">
          <mxGeometry x="454" y="594" width="40" height="40" as="geometry" />
        </mxCell>
        <mxCell id="LuacaKuUAbjQaWSRHdwC-105" value="&lt;font style=&quot;font-size: 10px;&quot;&gt;&lt;b&gt;EC2 Instance&lt;/b&gt;&lt;/font&gt;" style="sketch=0;points=[[0,0,0],[0.25,0,0],[0.5,0,0],[0.75,0,0],[1,0,0],[0,1,0],[0.25,1,0],[0.5,1,0],[0.75,1,0],[1,1,0],[0,0.25,0],[0,0.5,0],[0,0.75,0],[1,0.25,0],[1,0.5,0],[1,0.75,0]];outlineConnect=0;fontColor=#232F3E;gradientColor=#F78E04;gradientDirection=north;fillColor=#D05C17;strokeColor=#ffffff;dashed=0;verticalLabelPosition=bottom;verticalAlign=top;align=center;html=1;fontSize=12;fontStyle=0;aspect=fixed;shape=mxgraph.aws4.resourceIcon;resIcon=mxgraph.aws4.ec2;" parent="1" vertex="1">
          <mxGeometry x="374" y="675" width="40" height="40" as="geometry" />
        </mxCell>
        <mxCell id="LuacaKuUAbjQaWSRHdwC-108" value="" style="shape=partialRectangle;whiteSpace=wrap;html=1;bottom=1;right=1;left=1;top=0;fillColor=none;routingCenterX=-0.5;rotation=-180;direction=north;" parent="1" vertex="1">
          <mxGeometry x="99" y="226.5" width="15" height="69.5" as="geometry" />
        </mxCell>
        <mxCell id="LuacaKuUAbjQaWSRHdwC-111" value="xxxx.xxxx.xxx&lt;br&gt;&lt;b&gt;ip address&lt;/b&gt;" style="rounded=0;whiteSpace=wrap;html=1;fontSize=10;fontColor=#000033;strokeColor=#000033;fillColor=none;" parent="1" vertex="1">
          <mxGeometry x="115" y="218" width="100" height="24" as="geometry" />
        </mxCell>
        <mxCell id="LuacaKuUAbjQaWSRHdwC-112" value="&lt;b&gt;mail server&lt;/b&gt;" style="rounded=0;whiteSpace=wrap;html=1;fontSize=10;fontColor=#000033;strokeColor=#000033;fillColor=none;" parent="1" vertex="1">
          <mxGeometry x="115" y="248" width="100" height="24" as="geometry" />
        </mxCell>
        <mxCell id="LuacaKuUAbjQaWSRHdwC-113" value="yyyy.yyy.yyyy&lt;br&gt;&lt;b&gt;any other subdomain&lt;/b&gt;" style="rounded=0;whiteSpace=wrap;html=1;fontSize=10;fontColor=#000033;strokeColor=#000033;fillColor=none;" parent="1" vertex="1">
          <mxGeometry x="114" y="279" width="106" height="22" as="geometry" />
        </mxCell>
        <mxCell id="LuacaKuUAbjQaWSRHdwC-115" value="" style="line;strokeWidth=2;direction=west;html=1;" parent="1" vertex="1">
          <mxGeometry x="100" y="260" width="15" height="1" as="geometry" />
        </mxCell>
        <mxCell id="LuacaKuUAbjQaWSRHdwC-117" value="" style="line;strokeWidth=2;direction=west;html=1;" parent="1" vertex="1">
          <mxGeometry x="61" y="263" width="38" height="1" as="geometry" />
        </mxCell>
        <mxCell id="LuacaKuUAbjQaWSRHdwC-118" value="Amazon Route 53" style="sketch=0;outlineConnect=0;fontColor=#232F3E;gradientColor=none;strokeColor=#ffffff;fillColor=#232F3E;dashed=0;verticalLabelPosition=middle;verticalAlign=bottom;align=center;html=1;whiteSpace=wrap;fontSize=10;fontStyle=1;spacing=3;shape=mxgraph.aws4.productIcon;prIcon=mxgraph.aws4.route_53;" parent="1" vertex="1">
          <mxGeometry x="20" y="236" width="40" height="70" as="geometry" />
        </mxCell>
        <mxCell id="LuacaKuUAbjQaWSRHdwC-119" value="host" style="text;html=1;align=center;verticalAlign=middle;resizable=0;points=[];autosize=1;strokeColor=none;fillColor=none;fontSize=10;fontColor=#000033;" parent="1" vertex="1">
          <mxGeometry x="144" y="195" width="30" height="20" as="geometry" />
        </mxCell>
        <mxCell id="LuacaKuUAbjQaWSRHdwC-120" value="" style="endArrow=none;dashed=1;html=1;dashPattern=1 3;strokeWidth=2;rounded=0;fontColor=#FF3333;" parent="1" edge="1">
          <mxGeometry width="50" height="50" relative="1" as="geometry">
            <mxPoint x="259" y="399" as="sourcePoint" />
            <mxPoint x="260" y="154" as="targetPoint" />
          </mxGeometry>
        </mxCell>
        <mxCell id="FYyOpidDyHOzDRRm7Te9-1" value="&lt;span style=&quot;color: rgb(84, 91, 100); font-family: &amp;quot;Amazon Ember&amp;quot;, &amp;quot;Helvetica Neue&amp;quot;, Roboto, Arial, sans-serif; text-align: start; background-color: rgb(255, 255, 255);&quot;&gt;© 2022, Scadip SL&amp;nbsp;&lt;/span&gt;&lt;span style=&quot;color: rgb(84, 91, 100); font-family: &amp;quot;Amazon Ember&amp;quot;, &amp;quot;Helvetica Neue&amp;quot;, Roboto, Arial, sans-serif; text-align: start; background-color: rgb(255, 255, 255);&quot;&gt;. All rights reserved.&lt;/span&gt;" style="text;html=1;align=center;verticalAlign=middle;resizable=0;points=[];autosize=1;strokeColor=none;fillColor=none;fontSize=12;" parent="1" vertex="1">
          <mxGeometry x="9" y="799" width="230" height="20" as="geometry" />
        </mxCell>
      </root>
    </mxGraphModel>
  </diagram>
</mxfile>
